<svg width="1177" height="296" viewBox="0 0 1177 296" fill="none" xmlns="http://www.w3.org/2000/svg">
<path d="M1105 36L1118 18M1129.5 27L1139 18M1148 8.5L1155.5 1M1144.5 39L1155.5 28M1118 53.5L1132.5 39M1096.5 84L1108.5 72M1096.5 60L1112.5 44M1082 106.5L1096.5 92M1105 109.5L1118 96.5M1118 86.5L1129.5 75M1144.5 57.5L1158 44M1132.5 86.5L1148 75M1129.5 115L1142 102.5L1144.5 100M1102.5 133C1107.67 128.667 1118 119.5 1118 117.5" stroke="white" stroke-opacity="0.8" stroke-width="2" stroke-linecap="round" stroke-linejoin="round"/>
<path d="M1177 265V177C1177 177 1166.07 178.791 1161.5 183.5C1156.72 188.419 1159.49 194.428 1155.5 200C1151.2 205.999 1147.13 208.26 1140.5 211.5C1128.52 217.35 1106.5 214.5 1106.5 214.5L1110.5 240C1110.5 240 1137.06 241.247 1146 253C1150.56 259.004 1152.3 263.49 1153 271C1153.92 280.908 1146 295.5 1146 295.5C1150.5 294.833 1177 297.033 1177 274V265Z" fill="#383333"/>
<path d="M0 271V247.556C0 247.556 12.5158 251.862 16.9092 247.556C23.5068 241.09 22.1205 225.212 30.7956 228.424C38.0901 231.125 31.3958 241.391 36.1138 247.556C43.0829 256.663 53.9717 263.063 63.8867 257.269C70.8307 253.211 67.4333 244.468 73.3413 239.02C87.1939 226.247 112.175 230.886 120.91 247.556C130.11 265.113 105 295 105 295H46.5H21.5C21.5 295 11.3531 293.415 7 288.5C2.64691 283.585 0 277 0 277V271Z" fill="#383333"/>
<path d="M554 231.406C533.176 229.283 521.061 235.756 502 244.406C473.724 257.238 441 295.406 441 295.406H616L621 285.406C621 285.406 587.432 234.814 554 231.406Z" fill="white"/>
<path d="M487 279L514 263M548 254L576 270M514 287L542 279M576 287L599 279" stroke="black" stroke-width="2" stroke-linecap="round" stroke-linejoin="round"/>
</svg>
