<svg width="396" height="207" viewBox="0 0 396 207" fill="none" xmlns="http://www.w3.org/2000/svg">
<path d="M46 37C44.26 26.92 36.94 19.6 24.22 19.6C10.3 19.6 2.08 30.04 2.08 42.1C2.08 54.4 8.56 64.6 24.16 64.6C37 64.6 44.38 56.62 46 46.36L37.48 44.74C36.52 51.22 32.32 56.44 24.16 56.44C14.32 56.44 10.78 49.66 10.78 42.1C10.78 34.66 15.46 27.76 24.22 27.76C32.14 27.76 36.46 32.44 37.48 38.92L46 37ZM60.1516 64V46.66C60.1516 40.84 62.6716 36.76 68.1916 36.76C73.9516 36.76 76.1116 40.12 76.1116 45.58V64H84.4516V42.94C84.4516 35.02 80.0716 29.74 72.6916 29.74C65.0116 29.74 60.6316 35.68 60.0916 45.94L60.1516 44.8V17.44H51.3916V64H60.1516ZM116.921 50.38C115.781 54.28 113.201 56.62 108.101 56.62C101.861 56.62 98.8014 52.78 98.8014 47.26H125.681V45.88C125.681 36.88 119.801 29.74 108.281 29.74C96.8814 29.74 90.2814 37.96 90.2814 47.38C90.2814 57.34 96.0414 64.6 108.461 64.6C113.081 64.6 116.801 63.46 119.741 61.24C122.681 58.96 124.661 56.08 125.681 52.66L116.921 50.38ZM108.341 37.72C114.401 37.72 117.161 41.56 117.161 46.36V46.78H98.8014C99.0414 41.74 102.341 37.72 108.341 37.72ZM143.837 64V38.44H151.757V30.4H143.837V28.6C143.837 26.26 144.737 25.36 146.957 25.36H151.757V17.44H147.257C142.877 17.44 139.817 18.28 138.077 19.9C136.397 21.52 135.557 24.58 135.557 28.96V30.4H129.197V38.44H135.557V64H143.837ZM173.681 56.86C167.621 56.86 164.021 54.22 161.381 51.04L154.541 58.54C159.281 62.38 164.921 64.72 172.601 64.72C178.181 64.72 182.261 63.76 184.721 61.9C187.181 59.98 188.441 57.64 188.441 54.94C188.441 49.36 184.661 47.32 172.481 46.84C166.901 46.6 164.501 44.92 164.501 42.28C164.501 39.46 166.241 37.12 171.221 37.12C176.741 37.12 180.161 39.46 183.101 42.52L189.101 35.56C184.481 31.54 178.601 29.44 170.921 29.44C166.241 29.44 162.641 30.4 160.121 32.38C157.661 34.3 156.401 36.64 156.401 39.4C156.401 44.38 159.161 46.72 172.421 47.2C177.761 47.38 180.341 48.7 180.341 51.76C180.341 54.94 178.001 56.86 173.681 56.86Z" fill="#383333"/>
<path d="M0.52 173.9C2.74 176.36 5.38 178.46 8.5 180.14C11.68 181.82 15.58 182.66 20.26 182.66C32.62 182.66 38.14 177.14 38.14 170.9C38.14 164.42 34.84 161.18 19.66 159.86C10.54 159.08 9.16 156.2 9.16 152.66C9.16 148.76 11.86 145.34 17.86 145.34C24.58 145.34 28.48 147.86 31.54 152.96L39.16 146.48C34.18 140.78 28 137.42 18.22 137.42C7.3 137.42 1.48 142.94 1.48 149.66C1.48 155.66 4.3 158.96 19.66 160.22C28.6 161 30.22 163.22 30.22 167.3C30.22 171.62 27.1 174.8 21.34 174.8C15.34 174.8 11.8 172.46 8.44 167.66L0.52 173.9ZM69.5073 168.38C68.3673 172.28 65.7873 174.62 60.6873 174.62C54.4473 174.62 51.3873 170.78 51.3873 165.26H78.2673V163.88C78.2673 154.88 72.3873 147.74 60.8673 147.74C49.4673 147.74 42.8673 155.96 42.8673 165.38C42.8673 175.34 48.6273 182.6 61.0473 182.6C65.6673 182.6 69.3873 181.46 72.3273 179.24C75.2673 176.96 77.2473 174.08 78.2673 170.66L69.5073 168.38ZM60.9273 155.72C66.9873 155.72 69.7473 159.56 69.7473 164.36V164.78H51.3873C51.6273 159.74 54.9273 155.72 60.9273 155.72ZM118.532 161.66C117.092 153.68 111.212 147.74 101.132 147.74C89.9116 147.74 83.1916 155.78 83.1916 165.2C83.1916 174.8 89.4916 182.6 101.072 182.6C111.692 182.6 117.332 176.36 118.592 168.44L110.012 166.7C109.472 171.26 106.652 174.62 101.072 174.62C95.0716 174.62 91.7116 170.66 91.7116 165.2C91.7116 162.5 92.5516 160.28 94.1716 158.48C95.8516 156.62 98.1916 155.72 101.132 155.72C106.652 155.72 109.412 158.9 109.952 163.52L118.532 161.66ZM142.137 147.92C135.357 147.92 133.017 152.96 132.537 162.26V148.4H123.837V182H132.597V162.92C132.597 158.54 134.937 156.2 138.357 156.2C141.237 156.2 143.217 156.98 145.317 158.72L148.317 149.6C146.817 148.58 144.357 147.92 142.137 147.92ZM176.3 168.38C175.16 172.28 172.58 174.62 167.48 174.62C161.24 174.62 158.18 170.78 158.18 165.26H185.06V163.88C185.06 154.88 179.18 147.74 167.66 147.74C156.26 147.74 149.66 155.96 149.66 165.38C149.66 175.34 155.42 182.6 167.84 182.6C172.46 182.6 176.18 181.46 179.12 179.24C182.06 176.96 184.04 174.08 185.06 170.66L176.3 168.38ZM167.72 155.72C173.78 155.72 176.54 159.56 176.54 164.36V164.78H158.18C158.42 159.74 161.72 155.72 167.72 155.72ZM210.955 173.54C209.575 174.26 208.375 174.56 206.695 174.56C204.355 174.56 202.915 173.36 202.915 170.06V156.44H210.955V148.4H202.915V135.32L194.815 140.12V148.4H188.455V156.44H194.815V171.74C194.815 179.36 197.755 182.6 205.255 182.6C207.115 182.6 209.275 182.12 210.955 181.46V173.54ZM233.998 174.86C227.938 174.86 224.338 172.22 221.698 169.04L214.858 176.54C219.598 180.38 225.238 182.72 232.918 182.72C238.498 182.72 242.578 181.76 245.038 179.9C247.498 177.98 248.758 175.64 248.758 172.94C248.758 167.36 244.978 165.32 232.798 164.84C227.218 164.6 224.818 162.92 224.818 160.28C224.818 157.46 226.558 155.12 231.538 155.12C237.058 155.12 240.478 157.46 243.418 160.52L249.418 153.56C244.798 149.54 238.918 147.44 231.238 147.44C226.558 147.44 222.958 148.4 220.438 150.38C217.978 152.3 216.718 154.64 216.718 157.4C216.718 162.38 219.478 164.72 232.738 165.2C238.078 165.38 240.658 166.7 240.658 169.76C240.658 172.94 238.318 174.86 233.998 174.86Z" fill="#383333"/>
<path d="M102 123L106.32 111.72H122.7L127.02 123H136.26L118.8 79.2H110.16L92.76 123H102ZM114.48 90.42L117.06 97.14L122.52 111.24H106.5L111.9 97.14L114.48 90.42ZM172.551 102.66C171.111 94.68 165.231 88.74 155.151 88.74C143.931 88.74 137.211 96.78 137.211 106.2C137.211 115.8 143.511 123.6 155.091 123.6C165.711 123.6 171.351 117.36 172.611 109.44L164.031 107.7C163.491 112.26 160.671 115.62 155.091 115.62C149.091 115.62 145.731 111.66 145.731 106.2C145.731 103.5 146.571 101.28 148.191 99.48C149.871 97.62 152.211 96.72 155.151 96.72C160.671 96.72 163.431 99.9 163.971 104.52L172.551 102.66ZM186.071 123.84C193.451 123.84 199.031 116.52 200.951 108.54C200.891 110.52 200.711 112.98 200.711 115.2C200.711 121.44 203.471 123.6 208.211 123.6C210.191 123.6 212.411 123.24 213.311 122.76V115.5C212.831 115.74 212.351 115.92 211.391 115.92C209.891 115.92 209.171 115.26 209.171 113.04V101.76C209.171 92.94 203.711 88.74 194.351 88.74C186.131 88.74 180.191 92.64 176.531 98.7L184.211 102.96C186.191 98.58 189.071 96.12 194.111 96.12C198.971 96.12 201.071 98.52 201.071 101.58C201.071 103.56 198.731 104.64 196.031 105.3C194.051 105.78 191.591 106.32 189.851 106.62C186.311 107.4 183.671 108.12 181.331 109.38C178.271 111.06 176.891 113.16 176.891 116.46C176.891 120.78 180.071 123.84 186.071 123.84ZM194.471 106.2C197.651 105.54 200.051 104.82 201.071 103.08V106.2C200.051 113.88 196.451 116.58 191.591 116.58C187.691 116.58 185.711 114.72 185.711 112.26C185.711 110.28 186.551 108.9 188.291 108.12C190.031 107.34 192.071 106.74 194.471 106.2ZM216.102 106.32C216.102 117.6 223.182 123.3 231.222 123.3C235.482 123.3 238.542 121.92 240.462 119.16C242.442 116.34 243.702 112.62 244.242 108L243.882 116.1V123H252.582V76.44H243.822V96.9L244.122 102.9C242.982 93.84 238.902 89.04 231.462 89.04C223.542 89.04 216.102 95.22 216.102 106.32ZM234.462 115.62C227.982 115.62 224.622 111.54 224.622 106.2C224.622 100.68 228.222 96.72 234.462 96.72C240.702 96.72 244.182 100.68 244.182 106.02C244.182 111.48 240.882 115.62 234.462 115.62ZM285.117 109.38C283.977 113.28 281.397 115.62 276.297 115.62C270.057 115.62 266.997 111.78 266.997 106.26H293.877V104.88C293.877 95.88 287.997 88.74 276.477 88.74C265.077 88.74 258.477 96.96 258.477 106.38C258.477 116.34 264.237 123.6 276.657 123.6C281.277 123.6 284.997 122.46 287.937 120.24C290.877 117.96 292.857 115.08 293.877 111.66L285.117 109.38ZM276.537 96.72C282.597 96.72 285.357 100.56 285.357 105.36V105.78H266.997C267.237 100.74 270.537 96.72 276.537 96.72ZM308.527 105.66C308.527 99.84 310.747 95.76 316.267 95.76C322.027 95.76 323.767 99.24 323.767 104.58V123H332.527V105.78C332.527 99.96 335.467 95.76 340.267 95.76C346.027 95.76 347.767 99.12 347.767 104.58V123H356.527V101.94C356.527 94.02 352.267 88.74 344.767 88.74C337.087 88.74 333.427 94.14 332.527 103.02C332.527 93.84 328.687 88.74 320.767 88.74C313.327 88.74 309.187 94.32 308.467 103.98V89.4H299.767V123H308.527V105.66ZM359.19 89.4L372.51 120.54L365.37 135.96H374.13L395.07 89.4H386.31L377.67 109.44L377.01 111.3L376.47 109.56L368.01 89.4H359.19Z" fill="#383333"/>
</svg>
