<svg width="17" height="16" viewBox="0 0 17 16" fill="none" xmlns="http://www.w3.org/2000/svg">
<path d="M9.14226 1.52493C7.94596 2.71516 7.62334 5.56663 7.62334 5.56663C7.62334 5.56663 6.00403 3.68938 4.5855 3.54578C3.34136 3.41983 2.51125 3.76088 1.54765 4.5562C0.659256 5.28946 0.17591 5.94125 0.0287279 7.08227C-0.130914 8.31988 0.397953 9.04354 1.04134 10.1135C1.97924 11.6733 3.04904 12.1659 4.5855 13.1448L4.61189 13.1616C6.23756 14.1974 7.23435 14.8325 9.14226 15.1657C10.5056 15.4037 11.4521 15.7904 12.6864 15.1657C13.8155 14.5942 14.0612 13.7234 14.7116 12.6396C15.5796 11.1934 15.9391 9.75313 16.2306 8.0927C16.5035 6.53799 16.3527 5.9319 16.2306 4.5562C16.1244 3.36077 16.4145 2.50774 15.7243 1.52493C14.9631 0.441064 14.0105 0.0870093 12.6864 0.0092899C11.1832 -0.0789444 10.2086 0.464001 9.14226 1.52493Z" fill="white"/>
</svg>
