<svg width="23" height="23" viewBox="0 0 23 23" fill="none" xmlns="http://www.w3.org/2000/svg">
<path d="M8.20381 10.7812L2.45381 5.03125L1.4375 6.04756L6.17119 10.7812H1.4375V11.5C1.4375 14.1687 2.49765 16.7282 4.38474 18.6153C6.27182 20.5023 8.83126 21.5625 11.5 21.5625C14.1687 21.5625 16.7282 20.5023 18.6153 18.6153C20.5023 16.7282 21.5625 14.1687 21.5625 11.5V10.7812H8.20381ZM11.5 20.125C9.33765 20.1223 7.25496 19.3087 5.66347 17.8448C4.07198 16.3809 3.08747 14.3733 2.90447 12.2188H20.0962C19.9132 14.3735 18.9286 16.3811 17.337 17.845C15.7453 19.3089 13.6625 20.1225 11.5 20.125Z" fill="#383333"/>
<path d="M15.8125 5.75C15.429 5.75055 15.048 5.81243 14.6841 5.93328C14.1495 5.20995 13.4532 4.62168 12.6507 4.21546C11.8483 3.80924 10.9619 3.59633 10.0625 3.59375C8.78505 3.59004 7.54333 4.01525 6.53631 4.80125L3.17256 1.4375L2.15625 2.45381L6.50469 6.80225L7.01284 6.29409C7.4124 5.89238 7.88768 5.57392 8.41115 5.35715C8.93463 5.14038 9.49592 5.02961 10.0625 5.03125C10.7101 5.03303 11.3491 5.18017 11.9322 5.4618C12.5154 5.74344 13.0279 6.15239 13.432 6.6585C13.2786 6.79251 13.1368 6.93918 13.0079 7.09694C12.8062 7.34999 12.5499 7.5542 12.2582 7.69434C11.9664 7.83447 11.6468 7.90691 11.3232 7.90625H8.625V9.34375H11.3232C11.8622 9.34489 12.3945 9.22428 12.8804 8.99092C13.3662 8.75757 13.7931 8.4175 14.1292 7.99609C14.4084 7.64732 14.789 7.39389 15.2185 7.27082C15.648 7.14775 16.1051 7.16111 16.5266 7.30907C16.9482 7.45703 17.3133 7.73228 17.5717 8.09677C17.83 8.46126 17.9688 8.89699 17.9688 9.34375H19.4062C19.4051 8.39098 19.0261 7.47756 18.3524 6.80385C17.6787 6.13013 16.7653 5.75114 15.8125 5.75Z" fill="#383333"/>
</svg>
