<svg width="27" height="27" viewBox="0 0 27 27" fill="none" xmlns="http://www.w3.org/2000/svg">
<path fill-rule="evenodd" clip-rule="evenodd" d="M13.5 24.75C7.28663 24.75 2.25 19.7134 2.25 13.5C2.25 7.28663 7.28663 2.25 13.5 2.25C19.7134 2.25 24.75 7.28663 24.75 13.5C24.75 19.7134 19.7134 24.75 13.5 24.75ZM13.5 22.5C15.8869 22.5 18.1761 21.5518 19.864 19.864C21.5518 18.1761 22.5 15.8869 22.5 13.5C22.5 11.1131 21.5518 8.82387 19.864 7.13604C18.1761 5.44821 15.8869 4.5 13.5 4.5C11.1131 4.5 8.82387 5.44821 7.13604 7.13604C5.44821 8.82387 4.5 11.1131 4.5 13.5C4.5 15.8869 5.44821 18.1761 7.13604 19.864C8.82387 21.5518 11.1131 22.5 13.5 22.5V22.5ZM7.875 16.875H10.125V19.125L7.875 16.875ZM19.125 16.875L16.875 19.125V16.875H19.125ZM10.125 7.875V10.125H7.875L10.125 7.875ZM16.875 7.875L19.125 10.125H16.875V7.875ZM14.0625 10.125C14.5101 10.125 14.9393 9.94721 15.2557 9.63074C15.5722 9.31428 15.75 8.88505 15.75 8.4375C15.75 7.98995 15.5722 7.56072 15.2557 7.24426C14.9393 6.92779 14.5101 6.75 14.0625 6.75C13.6149 6.75 13.1857 6.92779 12.8693 7.24426C12.5528 7.56072 12.375 7.98995 12.375 8.4375C12.375 8.88505 12.5528 9.31428 12.8693 9.63074C13.1857 9.94721 13.6149 10.125 14.0625 10.125V10.125ZM8.4375 14.625C8.88505 14.625 9.31428 14.4472 9.63074 14.1307C9.94721 13.8143 10.125 13.3851 10.125 12.9375C10.125 12.4899 9.94721 12.0607 9.63074 11.7443C9.31428 11.4278 8.88505 11.25 8.4375 11.25C7.98995 11.25 7.56072 11.4278 7.24426 11.7443C6.92779 12.0607 6.75 12.4899 6.75 12.9375C6.75 13.3851 6.92779 13.8143 7.24426 14.1307C7.56072 14.4472 7.98995 14.625 8.4375 14.625V14.625ZM18.5625 15.75C18.7841 15.75 19.0035 15.7064 19.2083 15.6215C19.413 15.5367 19.599 15.4124 19.7557 15.2557C19.9124 15.099 20.0367 14.913 20.1215 14.7083C20.2064 14.5035 20.25 14.2841 20.25 14.0625C20.25 13.8409 20.2064 13.6215 20.1215 13.4167C20.0367 13.212 19.9124 13.026 19.7557 12.8693C19.599 12.7126 19.413 12.5883 19.2083 12.5035C19.0035 12.4186 18.7841 12.375 18.5625 12.375C18.1149 12.375 17.6857 12.5528 17.3693 12.8693C17.0528 13.1857 16.875 13.6149 16.875 14.0625C16.875 14.5101 17.0528 14.9393 17.3693 15.2557C17.6857 15.5722 18.1149 15.75 18.5625 15.75V15.75ZM13.5 14.625C13.7984 14.625 14.0845 14.5065 14.2955 14.2955C14.5065 14.0845 14.625 13.7984 14.625 13.5C14.625 13.2016 14.5065 12.9155 14.2955 12.7045C14.0845 12.4935 13.7984 12.375 13.5 12.375C13.2016 12.375 12.9155 12.4935 12.7045 12.7045C12.4935 12.9155 12.375 13.2016 12.375 13.5C12.375 13.7984 12.4935 14.0845 12.7045 14.2955C12.9155 14.5065 13.2016 14.625 13.5 14.625V14.625ZM12.9375 20.25C13.3851 20.25 13.8143 20.0722 14.1307 19.7557C14.4472 19.4393 14.625 19.0101 14.625 18.5625C14.625 18.1149 14.4472 17.6857 14.1307 17.3693C13.8143 17.0528 13.3851 16.875 12.9375 16.875C12.4899 16.875 12.0607 17.0528 11.7443 17.3693C11.4278 17.6857 11.25 18.1149 11.25 18.5625C11.25 19.0101 11.4278 19.4393 11.7443 19.7557C12.0607 20.0722 12.4899 20.25 12.9375 20.25Z" fill="black"/>
</svg>
