<svg width="127" height="29" viewBox="0 0 127 29" fill="none" xmlns="http://www.w3.org/2000/svg">
<path d="M7.94 12.34C12.44 12.34 13.31 13.12 14.36 17.98L15.2 22H19.19L18.29 17.92C17.9 16.06 17.39 14.74 16.82 13.99C16.25 13.21 15.38 12.73 14.27 12.52C13.58 12.37 12.41 12.25 10.16 12.25C13.28 12.16 18.59 10.3 18.59 5.98C18.59 2.35 15.98 0.0999994 10.37 0.0999994H0.32V21.97H3.98V12.34H7.94ZM9.65 3.43C13.37 3.43 15.11 5.08 15.11 7.6C15.11 10.15 13.34 12.13 9.74 12.13H3.98V3.43H9.65ZM34.5568 15.4C33.9568 17.68 32.4568 19 29.6068 19C26.1268 19 24.3868 16.78 24.3868 13.63H38.2168V13C38.2168 8.41 35.3368 4.87 29.6668 4.87C24.0568 4.87 20.8168 8.92 20.8168 13.66C20.8168 18.64 23.6368 22.3 29.7268 22.3C34.2868 22.3 37.1968 19.84 38.1568 16.36L34.5568 15.4ZM29.6968 8.2C33.0868 8.2 34.6768 10.3 34.6768 13.18V13.39H24.3868C24.5068 10.42 26.3368 8.2 29.6968 8.2ZM58.4975 11.86C57.7775 7.84 54.9275 4.87 49.9175 4.87C44.3975 4.87 41.0375 8.89 41.0375 13.6C41.0375 18.4 44.1875 22.3 49.8575 22.3C55.1375 22.3 57.8975 19.21 58.5275 15.19L54.9575 14.47C54.6275 17.08 53.0075 19 49.8575 19C46.4975 19 44.6075 16.72 44.6075 13.6C44.6075 12.07 45.0575 10.78 45.9875 9.76C46.9175 8.71 48.2375 8.2 49.9175 8.2C53.0375 8.2 54.5975 9.97 54.9275 12.61L58.4975 11.86ZM60.8166 3.04V3.28H65.9766V3.04H60.8166ZM61.5666 5.2V22H65.2266V5.2H61.5666ZM72.8483 28.48V18.25L72.6683 14.86C72.9683 17.11 73.6283 18.88 74.6483 20.2C75.6983 21.52 77.2883 22.18 79.4483 22.18C83.3783 22.18 87.0683 19.12 87.0683 13.48C87.0683 7.66 83.3483 4.99 79.6583 4.99C75.9083 4.99 73.2983 7.42 72.6683 12.19L72.8483 9.25V5.2H69.2183V28.48H72.8483ZM78.2183 19C74.6183 19 72.6683 16.72 72.6683 13.6C72.6683 12.07 73.1483 10.78 74.1083 9.76C75.0683 8.71 76.4183 8.2 78.1883 8.2C81.3983 8.2 83.5283 10.24 83.5283 13.57C83.5283 16.78 81.5783 19 78.2183 19ZM103.809 15.4C103.209 17.68 101.709 19 98.8588 19C95.3788 19 93.6388 16.78 93.6388 13.63H107.469V13C107.469 8.41 104.589 4.87 98.9188 4.87C93.3088 4.87 90.0688 8.92 90.0688 13.66C90.0688 18.64 92.8888 22.3 98.9788 22.3C103.539 22.3 106.449 19.84 107.409 16.36L103.809 15.4ZM98.9488 8.2C102.339 8.2 103.929 10.3 103.929 13.18V13.39H93.6388C93.7588 10.42 95.5888 8.2 98.9488 8.2ZM118.636 19.06C115.426 19.06 113.566 17.71 112.096 16L109.246 19.12C111.526 21.07 114.226 22.36 118.216 22.36C123.586 22.36 125.806 20.11 125.806 17.47C125.806 16.09 125.236 15.1 124.066 14.53C122.896 13.93 120.856 13.57 117.946 13.42C114.706 13.27 113.566 12.25 113.566 10.78C113.566 9.25 114.616 7.96 117.346 7.96C120.136 7.96 121.936 9.13 123.496 10.84L126.046 7.96C123.856 5.92 121.036 4.75 117.196 4.75C114.946 4.75 113.206 5.23 111.976 6.19C110.776 7.15 110.176 8.32 110.176 9.73C110.176 12.13 111.646 13.36 117.886 13.6C121.036 13.75 122.416 14.5 122.416 16.18C122.416 17.89 121.156 19.06 118.636 19.06Z" fill="black"/>
</svg>
