<svg width="31" height="31" viewBox="0 0 31 31" fill="none" xmlns="http://www.w3.org/2000/svg">
<g clip-path="url(#clip0_7_175)">
<path d="M19.2985 13.6986C19.0166 12.8597 18.5865 12.5594 18.089 12.5594C17.4826 12.5594 16.7754 13.0045 16.1103 13.4656C15.7146 13.7408 14.1825 15.4327 13.347 15.4327C13.2512 15.4353 13.1571 15.4075 13.0782 15.3532C12.2625 14.7759 13.2845 12.26 13.2845 11.0535C13.2845 9.88562 13.0723 9.43951 12.7473 9.43951C11.8488 9.43951 10.0886 12.8607 9.59792 13.8478C9.45939 14.1263 9.26612 14.2363 9.04185 14.2363C8.25765 14.2363 7.09128 12.8873 6.55556 12.6805C6.47563 12.648 6.39041 12.6306 6.30417 12.6291C5.40904 12.6291 5.42842 14.8558 5.44198 15.4467C5.9312 15.313 6.3899 15.2307 6.79096 15.2307C7.80185 15.2307 8.44462 15.7543 8.27703 17.2912C8.23924 17.6366 8.02079 18.7371 8.37826 18.9798C8.43564 19.0171 8.50311 19.0359 8.57153 19.0335C8.98373 19.0335 9.63667 18.5254 9.87934 18.3704C10.2058 18.1612 10.5483 18.0081 10.8379 18.0081C11.1867 18.0081 11.4589 18.2295 11.5369 18.8422C11.5834 19.205 11.4056 20.5855 11.7611 20.8059C11.8133 20.8373 11.8732 20.8535 11.9341 20.8528C12.5904 20.8528 13.7107 19.2127 14.2179 19.0248C14.456 18.9366 14.708 18.8918 14.9619 18.8926C15.6366 18.8926 16.2784 19.1905 16.9347 19.4423C17.0452 19.485 17.1353 19.5034 17.2084 19.5034C17.6051 19.5034 17.4898 18.9526 17.1503 18.6005C16.6557 18.0851 15.8711 18.3113 15.3208 17.9422C14.6219 17.4734 15.595 16.5312 15.9728 16.2518C16.4237 15.9175 17.4235 15.3804 18.2212 15.3804C18.5908 15.3804 18.9168 15.4957 19.1241 15.7989C19.516 16.3719 18.864 17.0955 19.0287 17.7388C19.098 18.0057 19.2656 18.0977 19.4642 18.0977C19.887 18.0977 20.4474 17.6802 20.4862 17.6405C20.7439 17.3727 21.0213 17.1245 21.3159 16.8979C19.8434 16.5719 19.7184 14.9512 19.2985 13.6986Z" fill="#383333"/>
<path d="M7.22495 12.4915C7.22495 12.4915 8.49837 13.6148 9.04232 13.6148C9.14646 13.6148 9.22445 13.5736 9.26078 13.4738C10.0435 11.3305 11.6986 8.88099 12.7793 8.88099C13.2506 8.88099 13.6124 9.34745 13.7442 10.5099C13.9147 12.0149 12.8737 14.2958 13.3741 14.8156C13.385 14.8266 13.3981 14.8352 13.4125 14.8409C13.4269 14.8465 13.4424 14.8491 13.4579 14.8485C14.0202 14.8485 16.2421 12.0033 18.1437 12.0033C18.2901 12.0029 18.4359 12.021 18.5777 12.057C20.291 12.4964 19.5484 15.4176 20.9391 16.2522C21.1693 16.3925 21.4333 16.4676 21.7029 16.4697C22.2154 16.4697 22.6833 16.1776 22.7952 15.5736C23.0776 14.0488 18.2348 11.0931 20.8548 11.0931C21.2307 11.0931 21.7601 11.1537 22.4799 11.2883C22.9085 8.35109 22.7589 7.53685 22.3752 7.53685C21.9378 7.53685 21.1958 8.59424 20.6557 8.77637C20.6401 8.78161 20.6237 8.78438 20.6073 8.7846C20.2987 8.7846 20.3094 7.67345 19.7814 7.67345C19.4404 7.67345 18.8751 8.13699 17.855 9.66084C17.329 10.447 16.9352 10.7579 16.6242 10.7579C15.4414 10.7579 15.4748 6.2334 14.0556 6.2334C13.7689 6.2334 13.423 6.41795 12.9958 6.86115C12.3399 7.54218 11.7277 7.7834 11.1547 7.7834C9.7592 7.7834 8.603 6.35013 7.65507 6.35013C7.28114 6.35013 6.93868 6.57343 6.62771 7.1973C5.98398 8.49107 8.16367 8.42423 7.22495 12.4915ZM8.89265 13.0737C8.63787 12.9594 8.18546 12.6533 7.76115 12.3046C7.83962 11.9204 7.88806 11.5756 7.91615 11.2578C8.03579 11.0573 8.18304 10.8597 8.36275 10.6766C9.09464 9.93015 10.0324 9.69426 10.4921 10.1254C9.8367 11.0287 9.25981 12.1345 8.89265 13.0737ZM19.6511 11.1488C19.4118 11.7151 19.8773 12.3128 20.5898 13.0941C20.5401 13.1484 20.4823 13.1946 20.4184 13.2312C20.3505 13.2688 20.2768 13.2948 20.2004 13.3082C19.9737 12.5429 19.5935 11.8081 18.6959 11.578C18.564 11.5458 18.4294 11.5259 18.2939 11.5184C18.0507 10.7279 18.1636 9.98537 18.6242 9.72865C19.1319 9.44432 19.872 9.85023 20.3772 10.6378C20.0958 10.6916 19.7896 10.8214 19.6511 11.1488Z" fill="#383333"/>
<path d="M23.2534 15.5843C23.1473 16.2774 24.1548 16.4014 23.6733 17.5368C23.4263 18.1176 21.3343 19.4564 21.4883 19.7494C21.7165 20.1781 21.9906 20.3447 22.2682 20.3447C22.8175 20.3447 23.3769 19.6927 23.6021 19.128C23.8971 18.3893 23.9732 16.4503 24.692 16.0909C24.8136 16.0294 24.9337 16.0023 25.0524 16.0023C25.762 16.0023 26.4251 16.9618 27.0645 17.0917C27.2204 16.3971 27.109 15.6763 27.2679 14.9778C24.569 14.9439 28.7675 11.2554 26.3684 9.75047C26.2391 9.66958 26.1306 9.63325 26.0356 9.63373C25.2805 9.63373 25.4563 11.9461 23.5484 11.9461C23.3963 11.9461 23.2301 11.9311 23.0495 11.8992C22.3515 11.7761 21.8695 11.719 21.5542 11.719C19.7165 11.7199 23.5513 13.6531 23.2534 15.5843Z" fill="#383333"/>
<path d="M28.0342 13.9607C28.103 13.5446 28.1066 13.1204 28.0448 12.7032C27.8714 11.5412 26.9632 10.5957 26.0206 10.5952C25.6985 10.5952 24.9274 10.7294 24.5627 11.874C24.3174 11.7715 24.0698 11.6746 23.8201 11.5834C24.0357 10.1326 23.9548 9.13823 23.5677 8.63012C23.4744 8.50299 23.3523 8.3997 23.2115 8.32866C23.0707 8.25762 22.9151 8.22084 22.7574 8.2213C22.2507 8.2213 21.6816 8.56037 20.9744 9.28548L20.9487 9.2167C20.7986 8.81079 20.5477 8.1317 19.8744 8.1317C19.4142 8.1317 18.8049 8.41554 17.5242 10.2823C17.1528 10.255 16.7809 10.2351 16.4087 10.2227L16.3399 9.9728C15.9403 8.50563 15.4869 6.84326 14.2096 6.84277H14.2091C13.6884 6.84277 13.1406 7.14938 12.5337 7.77955C12.0818 8.2494 11.6347 8.47754 11.1663 8.47754C10.5952 8.47754 10.0106 8.1501 9.44483 7.8338C8.87278 7.51412 8.28184 7.18329 7.67056 7.18329C6.94594 7.18329 6.35694 7.62746 5.86966 8.54148C5.31311 9.58579 5.62262 10.2755 5.92197 10.943C6.05275 11.2341 6.18983 11.5427 6.28719 11.9214C3.04333 13.3145 0.96875 15.424 0.96875 17.7892C0.96875 24.3442 7.47487 32.0312 15.5 32.0312C23.5256 32.0312 30.0312 24.3442 30.0312 17.7892C30.0312 16.3913 29.296 15.0854 28.0342 13.9607ZM15.5 31.0436C9.39155 31.0436 4.25523 26.2502 2.54684 21.2306C4.94886 23.6956 9.84541 25.3846 15.5 25.3846C21.1546 25.3846 26.0502 23.6956 28.4522 21.2311C26.7438 26.2497 21.608 31.0436 15.5 31.0436ZM20.8935 22.5738C20.7768 22.941 20.414 23.499 19.964 23.8918C19.2694 24.4978 18.4227 24.6281 18.0192 24.2047C17.6802 23.8472 17.7359 23.1832 18.1253 22.5617C18.9226 21.2888 20.0657 21.0098 20.5617 21.2616C20.552 21.2965 20.5385 21.3299 20.5317 21.3672C20.4629 21.7543 20.5874 22.1602 20.8935 22.5738ZM28.3374 16.3506C27.8632 16.3506 27.635 17.6642 27.6011 18.4901C27.5711 19.2181 27.3609 19.4607 27.0601 19.4607C26.6271 19.4607 26.0061 18.9589 25.4641 18.6751C25.2907 18.584 25.1575 18.5438 25.0528 18.5438C24.7424 18.5438 24.6857 18.9066 24.5791 19.4201C24.3994 20.2866 24.1853 21.1856 23.7155 21.933C23.3706 22.4818 22.8373 22.8635 22.303 22.8635C21.9519 22.8635 21.6002 22.6988 21.3009 22.3089C20.1238 20.7792 22.7094 20.4663 23.2248 19.4176C23.5232 18.8112 23.4278 18.6 23.1546 18.6C22.6169 18.6 21.391 19.4205 21.1381 19.6526C20.6915 20.0609 20.1786 20.6625 19.5508 20.6625C19.4447 20.6625 19.3348 20.645 19.2215 20.6068C18.5554 20.382 18.462 19.5441 18.6029 18.9216C18.7201 18.4014 18.9899 17.934 18.2944 17.9074C18.2698 17.9064 18.2453 17.9059 18.2207 17.9059C17.7727 17.9059 17.315 18.0531 16.9086 18.2372C16.4155 18.461 15.7335 18.8611 15.5547 19.4486C15.499 19.6293 16.695 19.8177 16.881 19.8894C17.8129 20.2537 18.2687 22.0076 17.2936 22.0076C17.1677 22.0076 17.018 21.978 16.8422 21.9141C16.2309 21.686 15.6163 21.3634 14.9764 21.3634C14.7662 21.3634 14.5535 21.3982 14.338 21.483C13.8914 21.6584 13.6473 22.1587 13.2956 22.4721C12.7754 22.939 12.3152 23.1899 11.9539 23.1899C11.456 23.1899 11.146 22.7133 11.1261 21.6666C11.1087 20.816 10.9454 20.5404 10.6814 20.5404C10.2106 20.5404 9.42013 21.4196 8.57102 21.4845C8.54631 21.4859 8.52258 21.4869 8.49981 21.4869C7.36686 21.4869 7.80764 19.3329 7.8958 18.6688C7.99219 17.9446 7.55528 17.6874 6.88248 17.6874C6.12637 17.6874 5.0748 18.012 4.14867 18.3641C4.19323 18.4038 4.23973 18.4387 4.28236 18.4823C5.13002 19.328 5.40853 20.4435 4.90623 20.972C4.40297 21.4995 3.30877 21.2413 2.46208 20.3946C1.61539 19.5479 1.33591 18.4324 1.83917 17.9044C2.26881 17.4506 2.93677 17.6032 3.50494 17.9059C4.24748 17.6564 5.00069 17.439 4.98325 17.0883C4.85102 14.4358 5.60325 13.9408 6.18402 13.9413C6.40539 13.9468 6.62193 14.0072 6.81419 14.1171C7.33828 10.7415 5.3722 10.5124 6.29591 8.77882C6.7333 7.95877 7.19006 7.6788 7.67153 7.6788C8.70664 7.6788 9.85509 8.97257 11.1673 8.97257C11.7093 8.97257 12.2794 8.75121 12.8805 8.12685C13.4196 7.56691 13.8536 7.3378 14.2106 7.3378C15.8076 7.33829 15.8502 11.9248 16.7633 11.9248C16.9386 11.9248 17.1464 11.7558 17.4026 11.3528C18.7419 9.24963 19.4544 8.62624 19.8749 8.62624C20.4881 8.62624 20.4799 9.95246 20.8853 9.95246C20.9686 9.95246 21.0703 9.89579 21.1982 9.75968C21.871 9.04329 22.3888 8.71537 22.7579 8.71537C23.6283 8.71537 23.6714 10.5371 22.9623 13.3751C22.9623 13.3751 23.1207 13.4153 23.3527 13.4153C23.8472 13.4153 24.6741 13.2336 24.9976 12.0982C25.2015 11.3833 25.5982 11.0898 26.0216 11.0898C26.69 11.0898 27.4239 11.8212 27.5667 12.7778C27.8269 14.525 26.6745 15.7625 26.7646 16.2895C26.7801 16.383 26.8261 16.4198 26.8949 16.4198C27.1531 16.4198 27.7329 15.8943 28.2391 15.8943C28.6164 15.8943 28.9535 16.1873 29.0833 17.2113C28.7869 16.5908 28.5399 16.3506 28.3374 16.3506Z" fill="#383333"/>
</g>
<defs>
<clipPath id="clip0_7_175">
<rect width="31" height="31" fill="white"/>
</clipPath>
</defs>
</svg>
