<svg width="34" height="17" viewBox="0 0 34 17" fill="none" xmlns="http://www.w3.org/2000/svg">
<path d="M8.50004 8.49999C10.456 8.49999 12.0417 6.91433 12.0417 4.95832C12.0417 3.00231 10.456 1.41666 8.50004 1.41666C6.54403 1.41666 4.95837 3.00231 4.95837 4.95832C4.95837 6.91433 6.54403 8.49999 8.50004 8.49999Z" fill="#292D32"/>
<path d="M8.50003 10.2708C4.95128 10.2708 2.06128 12.6508 2.06128 15.5833C2.06128 15.7817 2.21711 15.9375 2.41545 15.9375H14.5846C14.7829 15.9375 14.9388 15.7817 14.9388 15.5833C14.9388 12.6508 12.0488 10.2708 8.50003 10.2708Z" fill="#292D32"/>
<path d="M25.5 8.49999C27.456 8.49999 29.0417 6.91433 29.0417 4.95832C29.0417 3.00231 27.456 1.41666 25.5 1.41666C23.544 1.41666 21.9584 3.00231 21.9584 4.95832C21.9584 6.91433 23.544 8.49999 25.5 8.49999Z" fill="#292D32"/>
<path d="M25.5 10.2708C21.9513 10.2708 19.0613 12.6508 19.0613 15.5833C19.0613 15.7817 19.2171 15.9375 19.4154 15.9375H31.5846C31.7829 15.9375 31.9388 15.7817 31.9388 15.5833C31.9388 12.6508 29.0488 10.2708 25.5 10.2708Z" fill="#292D32"/>
</svg>
