<svg width="275" height="396" viewBox="0 0 275 396" fill="none" xmlns="http://www.w3.org/2000/svg">
<path d="M107.789 289.661L4.37036 281.214V322.044L7.179 361.114H23.4691H162.778V281.214L107.789 289.661Z" fill="white"/>
<path d="M259.077 245.202L213.435 267.623L198.167 275.043V361.114H242.342C242.342 361.114 260.946 298.686 261.613 257.893C261.678 253.929 261.613 247.74 261.613 247.74L259.077 245.202Z" fill="white" stroke="black" stroke-linecap="round"/>
<path d="M55.9137 177.748C55.9137 177.748 61.6065 172.787 66.0398 171.181C72.7306 168.757 80.7227 171.181 84.2669 171.181C85.9485 171.181 92.6634 171.673 97.4309 169.665C103.486 167.114 107.454 159.992 109.582 158.045C109.582 158.045 115.26 149.908 119.708 145.415C124.852 140.22 128.242 137.754 134.391 133.795C154.137 121.081 192.617 118.638 192.617 118.638L222.995 121.67C222.995 121.67 228.908 124.657 232.615 126.722C236.02 128.618 241.222 131.774 241.222 131.774C241.222 131.774 249.164 138.684 253.374 143.899C258.054 149.697 260.168 153.404 263.5 160.066C267.716 168.497 269.558 173.601 271.601 182.8C274.045 193.807 274.419 200.352 273.626 211.598C273.006 220.399 272.777 225.602 269.575 233.827C266.456 241.839 263.561 246.015 257.93 252.52C254.365 256.639 252.112 258.78 247.804 262.119C243.385 265.544 240.907 267.775 235.653 269.697C230.218 271.685 226.714 272.429 220.97 271.718C217.924 271.34 213.375 270.707 213.375 270.707L208.819 268.686C208.819 268.686 212.098 266.303 213.375 264.14C215.207 261.037 214.894 255.046 214.894 255.046C214.894 255.046 215.814 249.323 213.375 245.447C210.506 240.886 206.524 237.872 201.224 236.858C197.923 236.227 195.856 235.964 192.617 236.858C188.385 238.026 181.984 238.879 181.984 238.879L163.757 245.447L153.125 248.983L148.062 250.499L137.429 252.52L131.86 245.447L122.24 240.9L119.625 233.399C118.484 233.664 116.729 233.827 114.139 233.827H89.33C89.33 233.827 82.2671 234.018 77.6849 233.827C75.5118 233.736 72.1155 233.827 72.1155 233.827C72.1155 233.827 73.1281 226.754 72.1155 221.702C71.3706 217.985 66.0398 214.629 66.0398 214.629C66.0398 214.629 68.5971 210.483 69.584 207.556C70.161 205.844 70.5468 202.504 70.5468 202.504C70.8464 197.758 70.388 197.193 69.584 193.915C68.7002 190.312 68.0513 188.219 66.0398 185.099C64.707 183.032 61.9894 180.274 61.9894 180.274C57.7033 178.242 50.8506 180.274 50.8506 180.274L55.9137 177.748Z" fill="white" stroke="black"/>
<path d="M136.417 115.607V97.9247L135.404 97.4195L144.517 94.8934L190.591 73.6745L205.781 80.7475L213.882 118.638L217.426 125.711L211.856 128.237L200.718 162.592L185.528 170.675L147.049 169.665V167.139V164.613C147.218 163.602 147.454 160.874 147.049 158.045C146.543 154.508 147.555 155.014 147.555 152.488L150.087 144.909L153.631 136.573H156.163L153.631 135.816L150.087 132.784L145.53 129.248L142.492 125.711L138.948 121.164L136.923 117.628L136.417 115.607Z" fill="white"/>
<path d="M148.568 149.456C149.65 144.255 154.137 136.321 154.137 136.321L152.112 134.805L145.011 128.907C145.011 128.907 139.6 132.642 138.948 133.795C136.535 138.063 136.677 136.638 134.898 141.373C133.118 146.108 131.614 148.763 129.835 153.498C128.055 158.233 126.991 161.099 125.278 166.128C123.039 172.698 122.148 176.514 120.721 183.306C119.04 191.307 118.391 195.875 117.683 204.019C116.64 216.009 116.045 222.914 117.683 234.837C118.147 238.212 119.202 243.426 119.202 243.426C119.202 243.426 126.856 245.216 130.341 248.478C132.621 250.613 133.885 255.551 133.885 255.551L152.112 255.046C152.112 255.046 153.633 252.27 155.15 251.004C157.121 249.358 158.798 249.321 161.226 248.478C168.226 246.049 179.959 245.447 179.959 245.447L184.009 242.921C184.009 242.921 189.723 240.509 192.11 237.363C195.44 232.976 195.267 230.311 197.173 225.743C200.11 218.708 200.503 214.19 204.262 207.556C206.502 203.602 210.844 197.957 210.844 197.957L205.781 188.863C205.781 188.863 203.632 179.537 203.249 173.707C202.688 165.159 203.074 159.926 206.287 151.982C208.077 147.557 208.57 144.751 211.35 140.868C214.442 136.548 216.817 133.831 221.476 131.269C224.545 129.581 230.083 128.743 230.083 128.743L233.121 127.732C233.121 127.732 229.916 124.702 227.552 123.185C225.321 121.754 221.476 120.154 221.476 120.154H215.907L213.882 123.185C213.882 123.185 209.408 124.965 207.806 126.722C204.174 130.705 201.184 134.07 198.692 138.847C196.243 143.543 195.471 146.007 193.629 150.972C191.515 156.672 190.085 166.128 190.085 166.128C190.085 166.128 189.995 168.654 177.934 168.654H147.049V166.128C147.049 166.128 146.828 161.501 147.049 158.55C147.317 154.96 147.835 152.982 148.568 149.456Z" fill="#FEBD2F" stroke="black"/>
<path d="M137.429 249.994C137.429 249.994 135.919 244.812 135.404 241.405C134.461 235.162 135.404 231.552 135.404 225.238C135.404 221.687 135.404 216.144 135.404 216.144H142.998H161.226H184.009" stroke="black"/>
<path d="M141.986 215.639H138.948L140.467 211.598L145.53 209.387V208.566V205.03L146.036 200.988L147.049 196.946L149.074 193.41L152.112 191.894L153.631 192.399L155.15 195.431L155.656 198.967L167.808 199.472L169.326 196.946L174.39 191.389H176.921L179.453 193.41L180.972 196.946L181.984 201.493V212.103V215.639H174.39L171.858 217.155L168.314 219.176L165.276 218.67L162.745 215.639H152.112L151.099 216.65L149.581 218.165H147.049L144.517 217.155L141.986 215.639Z" fill="white"/>
<path d="M146.036 208.566C146.036 208.566 145.234 203.948 146.036 200.483C146.755 197.377 147.126 194.944 149.58 192.905L151.099 191.894C151.099 191.894 152.033 191.796 152.618 191.894C155.588 192.392 155.656 198.967 155.656 198.967H167.808C167.808 198.967 169.917 195.448 171.352 193.915C172.878 192.283 173.243 191.467 175.402 190.884C179.592 189.753 181.478 198.967 181.478 198.967C182.732 202.936 181.984 211.092 181.984 211.092V216.144H179.959H177.934C177.934 216.144 176.419 212.091 174.896 211.092C172.559 209.56 170.559 209.583 167.808 210.082C166.577 210.305 165.724 210.286 164.77 211.092C163.62 212.063 163.421 213.136 163.251 214.629C163.184 215.217 163.251 216.144 163.251 216.144C163.251 216.144 165.109 218.449 166.795 218.67C168.222 218.858 169.062 218.322 170.339 217.66C171.709 216.95 172.43 216.351 173.377 215.134" stroke="black" stroke-linecap="round"/>
<path d="M138.948 216.144C138.948 216.144 139.696 212.453 140.467 211.597C141.945 209.957 145.53 209.071 145.53 209.071C146.914 209.466 149.074 210.082 149.074 210.082C149.074 210.082 150.434 210.511 151.099 211.092C152.098 211.964 152.72 212.804 152.618 214.124C152.53 215.271 151.935 215.857 151.099 216.65C150.008 217.685 149.061 218.165 147.555 218.165C146.049 218.165 144.011 216.65 144.011 216.65L142.492 215.134" stroke="black" stroke-linecap="round"/>
<path d="M164.263 143.394C162.744 141.878 163.373 147.851 164.263 150.467C165.257 153.385 169.327 156.529 169.327 156.529C169.327 156.529 174.477 154.434 177.427 152.488C182.325 149.256 188.06 141.878 188.06 141.878L202.743 121.164" stroke="black" stroke-linecap="round"/>
<path d="M135.91 116.112C135.91 116.112 141.678 126.409 147.049 130.764C151.853 134.658 155.129 136.766 161.226 137.837C164.926 138.486 167.135 138.423 170.845 137.837C176.104 137.006 183.503 132.784 183.503 132.784" stroke="black" stroke-linecap="round"/>
<path d="M136.923 105.503C136.923 105.503 139.454 103.987 141.986 103.987C142.975 103.987 145.024 104.998 145.024 104.998" stroke="black" stroke-linecap="round"/>
<path d="M151.099 28.7106C149.921 33.1334 149.581 40.3305 149.581 40.3305C149.581 40.3305 147.74 41.2775 146.543 41.8461C143.26 43.4047 140.975 44.4034 137.935 46.3931C134.662 48.5358 134.898 48.4139 131.353 50.4348C127.809 52.4556 125.406 55.5981 122.746 58.5182C119.413 62.1769 117.574 66.0838 115.658 70.6433C113.431 75.9415 113.163 78.0589 112.62 83.7788C112.341 86.7251 112.356 88.4093 112.62 91.357C113.151 97.2686 113.595 100.928 116.671 106.008C119.057 109.951 120.596 113.644 124.771 115.607C126.984 116.648 128.416 116.856 130.847 117.123C132.813 117.338 135.342 118.002 135.91 116.112C136.081 115.545 135.91 114.597 135.91 114.597V103.482V97.4195C135.91 97.4195 139.28 98.44 141.48 98.9351C145.762 99.8994 148.238 100.156 152.618 100.451C156.958 100.743 159.472 101.197 163.757 100.451C167.453 99.8069 169.537 99.137 172.871 97.4195C175.649 95.9883 176.631 94.2159 179.453 92.8726C180.977 92.1467 182.908 92.9346 183.503 91.357C183.782 90.6184 183.503 89.3361 183.503 89.3361C183.503 89.3361 182.653 85.7762 183.503 83.7788C184.434 81.5922 185.806 80.5027 188.06 79.7371C189.932 79.1013 194.642 79.7371 194.642 79.7371L198.186 82.2632L200.718 87.3153C200.718 87.3153 202.644 95.7171 200.718 98.9351C198.944 101.898 193.123 103.482 193.123 103.482H200.718L199.705 112.576L202.237 121.164C202.237 121.164 203.755 119.649 207.806 121.165C211.856 122.68 213.671 123.742 216.919 122.175C217.957 121.674 218.492 121.404 219.451 121.164C220.309 120.95 221.476 120.154 221.476 120.154C224.272 118.293 225.356 115.715 226.539 112.576C227.823 109.171 228.141 106.085 228.565 102.472C229.047 98.3565 228.565 92.8726 228.565 92.8726C228.189 88.2819 226.782 85.6851 225.527 81.2527C224.009 75.8926 222.298 73.1737 219.957 68.1172C217.732 63.3112 213.882 55.9921 213.882 55.9921C213.882 55.9921 216.018 53.9712 216.919 52.4556C217.821 50.94 219.376 47.691 219.957 44.8774C220.72 41.1857 221.476 35.2784 221.476 35.2784C221.476 35.2784 222.063 31.4099 221.476 28.7106C220.876 25.95 218.945 21.6377 218.945 21.6377C218.945 21.6377 216.919 17.0908 213.882 14.0595C211.501 11.6837 209.916 10.1118 207.3 7.99692C205.165 6.27158 203.202 5.63019 200.718 4.46043C197.325 2.86284 195.302 2.05917 191.604 1.42916C187.558 0.73994 185.157 0.991193 181.114 1.41422L180.972 1.42916C177.77 1.764 172.871 2.9448 172.871 2.9448C172.871 2.9448 167.808 4.96565 163.757 7.99692C159.707 11.0282 156.669 16.0803 155.15 18.6064C153.631 21.1324 151.099 28.7106 151.099 28.7106Z" fill="black" stroke="black"/>
<path d="M173.377 32.2471C171.001 33.2459 167.808 35.7836 167.808 35.7836L166.795 36.794L168.82 37.2993C168.82 37.2993 179.953 38.3097 181.478 38.3097C183.003 38.3097 190.085 39.3201 190.085 39.3201L198.692 42.3514C198.692 42.3514 198.916 40.4249 198.186 39.3201C196.248 36.3877 191.604 33.2576 191.604 33.2576C191.604 33.2576 184.086 30.6244 179.959 30.7315C177.322 30.7999 175.808 31.2251 173.377 32.2471Z" fill="#FEBD2F" stroke="#FEBD2F"/>
<path d="M154.267 116.429C154.267 116.429 153.881 119.162 154.472 120.741C155.124 122.485 157.551 124.384 157.551 124.384" stroke="black" stroke-linecap="round"/>
<path d="M156.162 128.743C156.162 128.743 161.011 129.86 163.757 128.743C166.22 127.74 168.82 124.196 168.82 124.196" stroke="black"/>
<rect width="2.50122" height="5.59655" rx="1.25061" transform="matrix(0.921551 -0.388256 0.389689 0.920947 141.48 110.516)" fill="black"/>
<rect width="2.5017" height="5.59544" rx="1.25085" transform="matrix(0.969163 -0.246422 0.247426 0.968907 160.045 106.163)" fill="black"/>
<path d="M188.06 87.1469L190.288 89.0414L191.705 90.0939M191.705 90.0939L192.92 88.6204L194.136 86.3048M191.705 90.0939L192.11 93.041L192.92 96.4091" stroke="black"/>
<path d="M172.871 200.483L174.896 195.936L176.921 200.483H172.871Z" fill="black"/>
<path d="M149.074 200.988L150.593 197.452L152.112 200.988H149.074Z" fill="black"/>
<path d="M151.099 206.04C151.099 206.04 151.64 205.329 152.112 205.03C153.28 204.288 155.656 205.03 155.656 205.03L156.163 205.535" stroke="black" stroke-linecap="round"/>
<path d="M162.745 206.04C162.745 206.04 163.599 205.287 164.263 205.03C165.37 204.602 167.301 205.03 167.301 205.03L169.327 206.04" stroke="black" stroke-linecap="round"/>
<path d="M157.175 209.071C158.559 209.071 159.2 209.575 160.719 209.071" stroke="black" stroke-linecap="round"/>
<path d="M169.326 67.612C168.13 68.8022 167.808 71.6537 167.808 71.6537C167.808 71.6537 166.188 69.7764 164.77 69.6328C163.526 69.5069 162.695 69.8479 161.732 70.6433C160.843 71.3765 160.36 72.0283 160.213 73.1693C160.053 74.4069 160.582 75.1306 161.226 76.2006C162.163 77.7604 163.233 78.253 164.77 79.2319L164.796 79.2487C166.422 80.2845 167.419 80.9196 169.326 81.2527C170.69 81.4908 171.636 81.8775 172.871 81.2527C174 80.6812 174.245 79.8105 174.896 78.7267C175.764 77.2804 176.123 75.8402 176.415 74.1798C176.688 72.625 176.537 72.019 176.415 70.6433C176.309 69.4478 176.599 68.5948 175.908 67.612C175.147 66.5281 174.195 66.1741 172.871 66.0963C171.367 66.0081 170.393 66.5511 169.326 67.612Z" fill="#FF0000"/>
<path d="M22.4973 171.181C19.2132 172.263 14.9027 175.727 14.9027 175.727C14.9027 175.727 11.9278 179.644 10.346 182.8C9.35733 184.773 8.64091 186.817 7.81442 188.863C6.73808 191.527 6.65628 193.086 6.29549 195.936C5.99814 198.285 6.11822 199.638 6.29549 201.998C6.67529 207.057 7.31818 209.972 9.33334 214.629C10.9868 218.45 12.1923 220.559 14.9027 223.723C17.4531 226.699 19.2773 228.051 22.4973 230.29C26.3431 232.964 28.634 234.524 33.1298 235.848C37.886 237.248 40.8739 237.526 45.7875 236.858C49.6911 236.328 51.8406 235.496 55.4073 233.827C57.2503 232.964 59.9641 231.301 59.9641 231.301L63.0019 229.785L63.5083 231.301V236.858V240.395C63.5083 240.395 61.3411 240.255 59.9641 240.395C57.7212 240.622 53.0166 241.286 50.8506 241.91C44.8431 243.64 44.5785 243.771 39.2055 246.962C36.8945 248.335 34.1424 251.004 34.1424 251.004L33.1298 254.541C33.1298 254.541 33.075 257.313 33.1298 259.087C33.2522 263.051 33.1381 265.355 34.1424 269.192C34.9496 272.276 35.3295 274.172 37.1803 276.77C39.1311 279.508 40.8369 280.664 43.7623 282.327C47.3492 284.367 50.3762 284.919 54.3947 285.864C59.2672 287.01 61.5738 287.811 66.5461 288.39C73.8232 289.237 75.9294 289.245 83.2542 289.4C87.9986 289.501 92.7131 288.901 97.4309 288.39C102.058 287.889 107.104 287.035 111.607 285.864C115.603 284.824 116.396 284.398 120.215 282.832C123.077 281.659 123.828 281.166 126.29 279.296C128.07 277.944 130.341 275.254 130.341 275.254C130.341 275.254 132.687 269.664 133.379 265.655C134.12 261.36 134.627 257.707 133.379 253.53C133.074 252.512 132.872 251.509 132.872 251.509L127.809 246.962L122.24 244.436L119.202 242.921L115.658 241.91C115.658 241.91 112.936 241.627 110.089 240.9C104.52 239.478 101.151 240.04 95.4056 239.889C91.8478 239.796 88.3322 239.889 84.7732 239.889C79.2369 239.889 72.1155 240.395 72.1155 240.395V238.879C72.1155 238.879 72.0301 235.798 72.1155 233.827C72.2615 230.453 72.7306 228.054 72.1155 224.733C71.601 221.955 71.7577 220.953 70.0902 218.67C68.7727 216.867 66.0398 214.629 66.0398 214.629L64.5209 209.577L55.4073 194.42C55.4073 194.42 54.8984 189.687 53.8884 186.842C52.6764 183.428 51.6146 181.575 49.3316 178.759L49.2399 178.645C47.2698 176.215 46.0451 174.704 43.2559 173.201C40.3866 171.655 37.8742 170.144 34.6487 169.665C29.7594 168.939 27.1909 169.633 22.4973 171.181Z" fill="white" stroke="black"/>
<path d="M62.4957 230.29C62.4957 230.29 58.7766 230.993 56.9263 231.301C53.1747 231.925 50.9554 230.855 47.3065 229.785C43.5698 228.689 41.5849 227.653 38.1929 225.743C34.6096 223.726 32.7184 222.342 29.5857 219.681C26.8179 217.329 25.3917 215.848 23.0037 213.113C19.6516 209.274 17.932 206.929 15.4091 202.504C14.0975 200.203 12.3712 196.441 12.3712 196.441C12.3712 196.441 10.1716 191.607 10.346 188.358C10.4899 185.678 11.3586 181.285 11.3586 181.285C11.3586 181.285 9.54043 185.924 8.32078 188.863C7.21945 191.517 6.69824 193.091 6.29555 195.936C5.74173 199.848 6.1372 202.145 6.80186 206.04C7.31712 209.06 8.82709 213.618 8.82709 213.618" stroke="black" stroke-linecap="round"/>
<path d="M1.73868 194.42C2.53837 196.693 5.28283 199.472 5.28283 199.472L6.29544 200.483L6.80175 194.925C6.80175 194.925 7.30806 191.894 7.81437 189.873C8.32068 187.853 8.82698 186.842 8.82698 186.842L10.3459 183.306L11.3585 180.78C11.3585 180.78 9.80567 180.64 8.82698 180.78C6.63856 181.091 3.76391 183.306 3.76391 183.306C3.76391 183.306 2.26923 185.342 1.73868 186.842C0.751572 189.633 0.755979 191.628 1.73868 194.42Z" fill="white" stroke="black"/>
<path d="M14.3964 176.738L11.8649 180.274V181.285C11.8649 181.285 12.7553 181.959 13.3838 182.295C14.4863 182.884 16.4216 183.306 16.4216 183.306C16.4216 183.306 19.3067 183.914 20.9784 183.306C22.6909 182.682 22.9045 181.112 24.5226 180.274C25.6325 179.7 26.3198 179.421 27.5604 179.264C29.1419 179.064 31.6109 179.769 31.6109 179.769L36.1676 181.285C36.1676 181.285 39.6473 182.988 41.737 184.316C44.4724 186.054 45.8691 187.248 48.319 189.368C51.2764 191.928 55.4073 196.441 55.4073 196.441V192.399C55.4073 192.399 54.9788 188.521 53.8884 186.337C53.2528 185.063 53.0518 184.555 52.3695 183.306C51.6489 181.986 51.031 181.106 50.3443 179.769C49.4936 178.113 49.0924 177.082 47.8127 175.727C46.3455 174.175 45.1597 173.669 43.2559 172.696C41.1959 171.644 39.9711 171.044 37.6866 170.675C35.7347 170.36 34.0944 169.665 32.1172 169.665C30.3376 169.665 29.338 169.581 27.5604 169.665C25.5755 169.758 23.9462 170.321 21.991 170.675C20.3867 170.966 20.417 171.474 18.9532 172.191C16.6938 173.297 14.3964 176.738 14.3964 176.738Z" fill="white" stroke="black"/>
<path d="M61.483 205.03C59.6182 201.24 58.4452 200.483 55.9136 196.946C55.3276 196.128 55.4073 194.42 55.4073 194.42C55.4073 194.42 55.5294 192.567 55.4073 191.389C55.15 188.907 53.3821 185.326 53.3821 185.326L50.3442 179.264H54.901H58.4452L62.4956 180.274C62.4956 180.274 64.1718 181.517 65.0272 182.8C66.0067 184.27 66.8022 185.247 67.5587 186.842C68.3917 188.598 68.4338 189.05 69.0776 190.884C69.9498 193.368 70.3728 195.839 70.5965 198.462C70.7307 200.035 70.7156 200.93 70.5965 202.504C70.4913 203.895 70.3935 204.678 70.0902 206.04C69.6833 207.867 69.5001 208.961 68.5713 210.587C67.6687 212.167 65.5335 214.124 65.5335 214.124L65.0272 213.618C65.0272 213.618 62.9437 207.999 61.483 205.03Z" fill="white" stroke="black"/>
<path d="M33.1298 258.582C33.1298 258.582 37.7703 263.972 40.7244 265.655C45.8295 268.564 49.1973 269.286 54.901 270.707C66.0424 273.483 72.7834 272.749 84.2668 272.728C90.5971 272.717 95.1901 272.419 101.481 271.718C109.73 270.799 114.019 271.236 121.734 268.181C125.843 266.554 128.602 265.572 131.353 262.119C132.346 260.874 133.379 258.582 133.379 258.582L133.885 256.056" stroke="black" stroke-linecap="round"/>
<path d="M43.2559 260.603L39.2054 263.634L38.6991 264.14L36.1676 262.119L33.6361 259.593C33.6361 259.593 32.811 259.269 32.6234 258.582C32.4674 258.011 32.6234 256.561 32.6234 256.561C32.6234 256.561 33.0531 254.039 33.6361 252.52C34.1103 251.284 34.3526 250.542 35.155 249.488C36.8166 247.306 39.799 245.182 42.2433 243.931L47.3064 242.415L53.3821 241.405L60.9767 240.395L63.5082 239.384C63.5082 239.384 64.5208 241.429 64.5208 242.415C64.5208 245.572 66.4971 248.034 64.5208 250.499C64.1715 250.935 63.5082 251.509 63.5082 251.509L56.4199 254.035C56.4199 254.035 54.8442 252.005 53.3821 251.509C52.0716 251.065 51.2018 251.274 49.8379 251.509C46.8638 252.022 44.4136 252.77 43.2559 255.551C42.4975 257.373 43.2559 260.603 43.2559 260.603Z" fill="white"/>
<path d="M63.5082 229.785V236.353V239.384M63.5082 239.384C63.5082 239.384 64.5208 241.429 64.5208 242.415C64.5208 245.572 66.4971 248.034 64.5208 250.499C64.1715 250.935 63.5082 251.509 63.5082 251.509L56.4199 254.035C56.4199 254.035 54.8442 252.005 53.3821 251.509C52.0716 251.065 51.2018 251.274 49.8379 251.509C46.8638 252.022 44.4136 252.77 43.2559 255.551C42.4975 257.373 43.2559 260.603 43.2559 260.603L39.2054 263.634L38.6991 264.14L36.1676 262.119L33.6361 259.593C33.6361 259.593 32.811 259.269 32.6234 258.582C32.4674 258.011 32.6234 256.561 32.6234 256.561C32.6234 256.561 33.0531 254.039 33.6361 252.52C34.1103 251.284 34.3526 250.542 35.155 249.488C36.8166 247.306 39.799 245.182 42.2433 243.931L47.3064 242.415L53.3821 241.405L60.9767 240.395L63.5082 239.384Z" stroke="black" stroke-linecap="round"/>
<path d="M61.9893 260.098L64.5208 250.499C64.5208 251.711 63.8457 254.372 63.0019 256.561L61.9893 260.098Z" stroke="black" stroke-linecap="round"/>
<path d="M72.1155 233.827V256.056" stroke="black" stroke-linecap="round"/>
<path d="M76.6722 251.004L72.1155 252.52V245.447V240.395C72.1155 240.395 74.165 240.418 75.1533 240.395C78.7333 240.309 79.6807 240.119 83.2542 239.889C88.1872 239.573 91.4875 239.54 96.4182 239.889C101.349 240.239 107.097 239.927 113.126 241.405C115.922 242.09 116.926 242.687 119.708 243.426L119.832 243.459C122.124 244.068 123.595 244.458 125.784 245.447C128.486 246.667 131.86 249.488 131.86 249.488C131.86 249.488 134.126 253.572 133.885 256.056C133.697 257.99 132.872 260.098 132.872 260.098L130.847 262.624L128.822 264.14L118.189 257.067L119.708 256.056V252.52C119.708 252.52 118.083 250.392 116.671 249.488C114.449 248.068 112.725 247.885 110.089 247.973C107.401 248.062 103.507 249.994 103.507 249.994L99.4561 249.488H90.3426C90.3426 249.488 88.892 248.373 87.811 247.973C85.7717 247.218 82.7479 246.962 82.7479 246.962C82.7479 246.962 79.9229 247.331 78.6975 247.973C77.4351 248.634 76.6722 251.004 76.6722 251.004Z" stroke="black" stroke-linecap="round"/>
<path d="M26.5478 262.119L32.6235 260.098L33.1298 264.14L33.6361 267.676L35.6613 274.749L39.7118 279.801L43.7623 282.832L50.3443 284.853L55.4073 286.369L60.4704 287.885L67.5587 288.895L74.647 289.4H80.7227H87.3047L91.8615 288.895L99.9624 288.39L106.038 287.379L113.126 285.358L118.189 283.843L123.759 281.317L126.29 279.296L128.822 277.275L130.847 274.749L131.86 271.718L132.872 268.686L133.885 264.645V261.613V255.046H152.112L160.213 255.551H169.327C169.327 255.551 166.314 257.817 164.264 259.087C162.159 260.392 160.475 260.4 158.694 262.119C156.469 264.265 155.795 266.171 155.15 269.192C154.614 271.7 154.035 273.448 155.15 275.759C155.999 277.519 158.694 279.296 158.694 279.296L162.745 281.317L161.732 285.358C161.732 285.358 154.079 293.384 148.062 296.978C148.062 296.978 141.394 300.35 136.923 302.03C121.981 307.646 112.371 306.912 96.4183 307.588C82.1825 308.191 59.9641 306.072 59.9641 306.072C59.9641 306.072 44.3001 304.688 34.6487 302.03C28.3791 300.304 18.9532 296.473 18.9532 296.473C18.9532 296.473 12.5519 293.467 9.33335 290.411C7.29779 288.477 5.55546 287.548 4.77658 284.853C4.22856 282.958 4.46049 281.749 4.77658 279.801C5.14655 277.522 5.59447 276.214 6.80181 274.244C8.48097 271.504 10.2939 270.602 12.8775 268.686C17.6335 265.16 26.5478 262.119 26.5478 262.119Z" fill="white" stroke="black" stroke-linecap="round"/>
<path d="M131.353 273.233C131.353 273.233 133.574 269.452 135.91 268.181C138.365 266.846 142.998 267.171 142.998 267.171H155.656" stroke="black" stroke-linecap="round"/>
<path d="M78.1911 255.046C77.338 253.808 76.6722 251.509 76.6722 251.509V250.499C76.6722 250.499 78.0863 249.072 79.2037 248.478C80.4742 247.803 80.9759 247.303 82.7479 247.468C84.7556 247.653 87.8109 248.478 87.8109 248.478L90.3425 249.488C90.3425 249.488 90.8523 251.741 90.3425 253.025C89.9783 253.942 88.8235 255.046 88.8235 255.046C88.8235 255.046 87.342 257.452 85.7857 258.077C83.9424 258.818 82.4621 258.53 80.7226 257.572C79.4987 256.897 78.9832 256.195 78.1911 255.046Z" fill="#FEBD2F"/>
<path d="M12.3711 282.832L32.6234 280.306M39.7117 298.494L51.8631 290.411M78.1911 304.557V294.958M119.708 300.01L108.063 290.411M130.847 282.832L150.593 285.864M76.6722 251.509C76.6722 251.509 77.338 253.808 78.1911 255.046C78.9832 256.195 79.4987 256.897 80.7226 257.572C82.4621 258.53 83.9424 258.818 85.7857 258.077C87.342 257.452 88.8236 255.046 88.8236 255.046C88.8236 255.046 89.9783 253.942 90.3425 253.025C90.8523 251.741 90.3425 249.488 90.3425 249.488L87.8109 248.478C87.8109 248.478 84.7556 247.653 82.7479 247.468C80.9759 247.303 80.4742 247.803 79.2037 248.478C78.0863 249.072 76.6722 250.499 76.6722 250.499V251.509Z" stroke="black" stroke-linecap="round"/>
<path d="M49.8379 266.16C46.5517 265.428 43.2559 260.603 43.2559 260.603C43.2559 260.603 42.9311 258.409 43.2559 257.067C43.5671 255.78 43.9301 255.056 44.7748 254.035C45.9628 252.6 46.994 251.863 48.8253 251.509C49.7959 251.322 51.3568 251.509 51.3568 251.509L54.3947 252.014L56.4199 254.035L58.4451 257.572C58.4451 257.572 59.7868 259.399 59.4578 260.603C59.1635 261.68 58.4451 263.129 58.4451 263.129C58.4451 263.129 55.7279 265.493 53.8884 266.16C52.4018 266.7 51.3817 266.504 49.8379 266.16Z" fill="#FEBD2F"/>
<path d="M73.1281 268.181L70.0902 272.728L90.8488 272.223L89.3299 269.697C89.3299 269.697 86.0447 267.353 83.7605 266.16C82.0351 265.259 81.1406 263.937 79.2038 264.14C78.1447 264.25 76.6722 265.15 76.6722 265.15L73.1281 268.181Z" fill="#FEBD2F"/>
<path d="M101.481 254.035L103.507 250.499L107.557 248.478H113.633L117.177 249.488L119.202 252.014V254.541L118.696 256.056L118.189 257.572C118.189 257.572 116.274 259.785 114.645 260.603C112.844 261.507 109.582 261.614 109.582 261.614C109.582 261.614 105.473 261.135 103.507 259.593C102.292 258.64 101.204 258.085 100.975 256.561C100.826 255.566 101.481 254.035 101.481 254.035Z" fill="#FEBD2F"/>
<path d="M49.8379 266.16C46.5517 265.428 43.2559 260.603 43.2559 260.603C43.2559 260.603 42.9311 258.409 43.2559 257.067C43.5671 255.78 43.9301 255.056 44.7748 254.035C45.9628 252.6 46.994 251.863 48.8253 251.509C49.7959 251.322 51.3568 251.509 51.3568 251.509L54.3947 252.014L56.4199 254.035L58.4451 257.572C58.4451 257.572 59.7868 259.399 59.4578 260.603C59.1635 261.68 58.4451 263.129 58.4451 263.129C58.4451 263.129 55.7279 265.493 53.8884 266.16C52.4018 266.7 51.3817 266.504 49.8379 266.16Z" stroke="black" stroke-linecap="round"/>
<path d="M73.1281 268.181L70.0902 272.728L90.8488 272.223L89.3299 269.697C89.3299 269.697 86.0447 267.353 83.7605 266.16C82.0351 265.259 81.1406 263.937 79.2038 264.14C78.1447 264.25 76.6722 265.15 76.6722 265.15L73.1281 268.181Z" stroke="black" stroke-linecap="round"/>
<path d="M101.481 254.035L103.507 250.499L107.557 248.478H113.633L117.177 249.488L119.202 252.014V254.541L118.696 256.056L118.189 257.572C118.189 257.572 116.274 259.785 114.645 260.603C112.844 261.507 109.582 261.614 109.582 261.614C109.582 261.614 105.473 261.135 103.507 259.593C102.292 258.64 101.204 258.085 100.975 256.561C100.826 255.566 101.481 254.035 101.481 254.035Z" stroke="black" stroke-linecap="round"/>
<path d="M67.0587 263.129C67.0587 263.968 66.3768 264.65 65.5334 264.65C64.69 264.65 64.0082 263.968 64.0082 263.129C64.0082 262.29 64.69 261.608 65.5334 261.608C66.3768 261.608 67.0587 262.29 67.0587 263.129Z" stroke="black"/>
<path d="M66.0461 223.723C66.0461 224.562 65.3642 225.243 64.5208 225.243C63.6775 225.243 62.9956 224.562 62.9956 223.723C62.9956 222.884 63.6775 222.202 64.5208 222.202C65.3642 222.202 66.0461 222.884 66.0461 223.723Z" stroke="black"/>
<path d="M69.0839 241.91C69.0839 242.749 68.4021 243.431 67.5587 243.431C66.7153 243.431 66.0334 242.749 66.0334 241.91C66.0334 241.071 66.7153 240.389 67.5587 240.389C68.4021 240.389 69.0839 241.071 69.0839 241.91Z" stroke="black"/>
<path d="M46.8064 221.702C46.8064 222.541 46.1246 223.223 45.2812 223.223C44.4378 223.223 43.756 222.541 43.756 221.702C43.756 220.863 44.4378 220.181 45.2812 220.181C46.1246 220.181 46.8064 220.863 46.8064 221.702Z" stroke="black"/>
<path d="M58.9578 216.65C58.9578 217.489 58.276 218.17 57.4326 218.17C56.5892 218.17 55.9073 217.489 55.9073 216.65C55.9073 215.811 56.5892 215.129 57.4326 215.129C58.276 215.129 58.9578 215.811 58.9578 216.65Z" stroke="black"/>
<path d="M95.4119 256.056C95.4119 256.895 94.73 257.577 93.8867 257.577C93.0433 257.577 92.3615 256.895 92.3615 256.056C92.3615 255.217 93.0433 254.535 93.8867 254.535C94.73 254.535 95.4119 255.217 95.4119 256.056Z" stroke="black"/>
<path d="M95.4119 266.16C95.4119 266.999 94.73 267.681 93.8867 267.681C93.0433 267.681 92.3615 266.999 92.3615 266.16C92.3615 265.322 93.0433 264.64 93.8867 264.64C94.73 264.64 95.4119 265.322 95.4119 266.16Z" stroke="black"/>
<path d="M110.601 266.16C110.601 266.999 109.919 267.681 109.076 267.681C108.233 267.681 107.551 266.999 107.551 266.16C107.551 265.322 108.233 264.64 109.076 264.64C109.919 264.64 110.601 265.322 110.601 266.16Z" stroke="black"/>
<path d="M77.1849 261.108C77.1849 261.947 76.503 262.629 75.6596 262.629C74.8163 262.629 74.1344 261.947 74.1344 261.108C74.1344 260.269 74.8163 259.587 75.6596 259.587C76.503 259.587 77.1849 260.269 77.1849 261.108Z" stroke="black"/>
<path d="M60.983 269.192C60.983 270.031 60.3011 270.713 59.4577 270.713C58.6143 270.713 57.9325 270.031 57.9325 269.192C57.9325 268.353 58.6143 267.671 59.4577 267.671C60.3011 267.671 60.983 268.353 60.983 269.192Z" stroke="black"/>
<path d="M87.3109 262.119C87.3109 262.958 86.6291 263.64 85.7857 263.64C84.9424 263.64 84.2605 262.958 84.2605 262.119C84.2605 261.28 84.9424 260.598 85.7857 260.598C86.6291 260.598 87.3109 261.28 87.3109 262.119Z" stroke="black"/>
<path d="M99.4623 262.119C99.4623 262.958 98.7805 263.64 97.9371 263.64C97.0937 263.64 96.4119 262.958 96.4119 262.119C96.4119 261.28 97.0937 260.598 97.9371 260.598C98.7805 260.598 99.4623 261.28 99.4623 262.119Z" stroke="black"/>
<path d="M122.752 264.14C122.752 264.979 122.071 265.66 121.227 265.66C120.384 265.66 119.702 264.979 119.702 264.14C119.702 263.301 120.384 262.619 121.227 262.619C122.071 262.619 122.752 263.301 122.752 264.14Z" stroke="black"/>
<path d="M26.5477 217.155L34.6487 215.134C34.6487 215.134 40.734 213.143 44.7748 212.608C49.479 211.986 56.9262 212.608 56.9262 212.608H64.0145" stroke="black" stroke-linecap="round"/>
<path d="M35.6613 207.556C32.9804 209.429 32.1172 215.134 32.1172 215.134L35.6613 214.124H39.7118L47.3064 212.103C47.3064 212.103 46.6662 208.922 45.2812 207.556C42.6093 204.921 38.7387 205.406 35.6613 207.556Z" fill="#FEBD2F" stroke="black" stroke-linecap="round"/>
<path d="M162.745 280.812C162.745 280.812 167.695 281.096 170.845 280.812C175.908 280.354 178.856 279.836 183.503 277.78C186.665 276.382 188.76 275.703 191.604 273.739C194.956 271.423 197.788 270.481 199.199 266.666C200.157 264.074 199.199 259.593 199.199 259.593C199.199 259.593 197.946 254.346 195.655 252.014C193.61 249.935 191.815 249.478 189.073 248.478C186.414 247.508 186.613 248.072 184.009 246.962C183.196 246.616 179.959 245.952 179.959 245.952H173.883L167.301 246.962L161.226 248.478L157.175 249.488L154.137 252.014L152.618 254.541L169.327 255.551L165.782 258.077L163.757 259.593L160.719 260.603L158.188 262.624L156.669 265.15L155.656 267.676L154.644 271.718V274.749L155.656 276.265L157.175 277.78L160.213 279.801L162.745 280.812Z" fill="white"/>
<path d="M162.745 280.812L162.559 281.276L162.635 281.306L162.716 281.311L162.745 280.812ZM170.845 280.812L170.89 281.31L170.845 280.812ZM183.503 277.78L183.705 278.238L183.503 277.78ZM191.604 273.739L191.32 273.327L191.604 273.739ZM199.199 266.666L198.73 266.492L199.199 266.666ZM199.199 259.593L199.688 259.488L199.685 259.477L199.199 259.593ZM195.655 252.014L195.298 252.365L195.655 252.014ZM189.073 248.478L189.244 248.008L189.073 248.478ZM184.009 246.962L183.813 247.422L184.009 246.962ZM179.959 245.952L180.059 245.462L180.01 245.452H179.959V245.952ZM173.883 245.952V245.452H173.845L173.807 245.458L173.883 245.952ZM167.301 246.962L167.225 246.468L167.203 246.472L167.18 246.477L167.301 246.962ZM157.175 249.488L157.054 249.003L156.943 249.031L156.855 249.104L157.175 249.488ZM154.137 252.014L153.818 251.63L153.752 251.684L153.709 251.757L154.137 252.014ZM152.618 254.541L152.19 254.283L151.765 254.99L152.588 255.04L152.618 254.541ZM169.327 255.551L169.617 255.958L170.768 255.137L169.357 255.052L169.327 255.551ZM165.782 258.077L165.492 257.67L165.483 257.677L165.782 258.077ZM163.757 259.593L163.915 260.067L163.992 260.042L164.057 259.993L163.757 259.593ZM160.719 260.603L160.562 260.129L160.477 260.157L160.407 260.212L160.719 260.603ZM158.188 262.624L157.876 262.233L157.806 262.289L157.759 262.366L158.188 262.624ZM156.669 265.15L156.24 264.892L156.22 264.927L156.205 264.964L156.669 265.15ZM155.656 267.676L155.192 267.49L155.18 267.522L155.171 267.555L155.656 267.676ZM154.644 271.718L154.159 271.596L154.144 271.656V271.718H154.644ZM154.644 274.749H154.144V274.901L154.228 275.027L154.644 274.749ZM155.656 276.265L155.241 276.542L155.268 276.584L155.303 276.619L155.656 276.265ZM157.175 277.78L156.822 278.134L156.857 278.169L156.898 278.197L157.175 277.78ZM160.213 279.801L159.936 280.217L159.979 280.246L160.028 280.266L160.213 279.801ZM162.745 280.812C162.716 281.311 162.716 281.311 162.716 281.311C162.716 281.311 162.716 281.311 162.716 281.311C162.716 281.311 162.717 281.311 162.717 281.311C162.718 281.311 162.719 281.311 162.72 281.311C162.722 281.311 162.726 281.311 162.731 281.312C162.741 281.312 162.755 281.313 162.774 281.314C162.811 281.316 162.867 281.319 162.938 281.323C163.081 281.33 163.288 281.34 163.546 281.351C164.062 281.373 164.783 281.4 165.603 281.418C167.237 281.454 169.286 281.454 170.89 281.31L170.801 280.314C169.254 280.453 167.252 280.454 165.624 280.418C164.813 280.401 164.099 280.374 163.589 280.352C163.334 280.341 163.129 280.331 162.989 280.324C162.919 280.32 162.865 280.317 162.828 280.315C162.81 280.314 162.796 280.314 162.787 280.313C162.782 280.313 162.779 280.313 162.776 280.313C162.775 280.313 162.775 280.312 162.774 280.312C162.774 280.312 162.774 280.312 162.773 280.312C162.773 280.312 162.773 280.312 162.773 280.312C162.773 280.312 162.773 280.312 162.745 280.812ZM170.89 281.31C175.986 280.85 178.991 280.322 183.705 278.238L183.301 277.323C178.72 279.349 175.831 279.859 170.801 280.314L170.89 281.31ZM183.705 278.238C186.83 276.856 188.994 276.15 191.888 274.15L191.32 273.327C188.527 275.257 186.501 275.908 183.301 277.323L183.705 278.238ZM191.888 274.15C192.714 273.579 193.507 273.094 194.271 272.618C195.03 272.144 195.761 271.679 196.434 271.161C197.795 270.115 198.923 268.853 199.668 266.839L198.73 266.492C198.063 268.294 197.069 269.411 195.824 270.368C195.194 270.853 194.501 271.296 193.742 271.769C192.987 272.24 192.17 272.74 191.32 273.327L191.888 274.15ZM199.668 266.839C200.188 265.433 200.177 263.57 200.056 262.116C199.995 261.378 199.903 260.723 199.827 260.253C199.789 260.018 199.754 259.828 199.729 259.697C199.717 259.631 199.706 259.58 199.699 259.544C199.696 259.527 199.693 259.513 199.691 259.504C199.69 259.499 199.689 259.495 199.689 259.493C199.688 259.491 199.688 259.49 199.688 259.49C199.688 259.489 199.688 259.489 199.688 259.489C199.688 259.488 199.688 259.488 199.688 259.488C199.688 259.488 199.688 259.488 199.199 259.593C198.71 259.697 198.71 259.697 198.71 259.697C198.71 259.697 198.71 259.697 198.71 259.697C198.71 259.697 198.71 259.697 198.71 259.697C198.71 259.698 198.71 259.698 198.71 259.699C198.711 259.701 198.711 259.704 198.712 259.708C198.714 259.715 198.716 259.727 198.719 259.743C198.726 259.775 198.735 259.822 198.747 259.884C198.77 260.008 198.803 260.188 198.84 260.414C198.913 260.865 199.001 261.493 199.06 262.199C199.179 263.633 199.168 265.306 198.73 266.492L199.668 266.839ZM199.199 259.593C199.685 259.477 199.685 259.476 199.685 259.476C199.685 259.476 199.685 259.476 199.685 259.476C199.685 259.476 199.685 259.475 199.685 259.475C199.684 259.474 199.684 259.473 199.684 259.472C199.683 259.469 199.682 259.464 199.681 259.459C199.678 259.448 199.674 259.432 199.669 259.412C199.659 259.371 199.644 259.312 199.624 259.236C199.584 259.084 199.525 258.866 199.447 258.597C199.292 258.06 199.06 257.319 198.754 256.503C198.151 254.89 197.236 252.91 196.011 251.664L195.298 252.365C196.365 253.451 197.222 255.259 197.818 256.853C198.112 257.64 198.336 258.356 198.487 258.876C198.562 259.135 198.619 259.345 198.657 259.489C198.676 259.561 198.69 259.617 198.699 259.654C198.704 259.673 198.707 259.687 198.709 259.696C198.71 259.701 198.711 259.704 198.712 259.706C198.712 259.707 198.712 259.708 198.712 259.708C198.712 259.709 198.712 259.709 198.712 259.709C198.712 259.709 198.712 259.709 198.712 259.709C198.712 259.709 198.712 259.709 199.199 259.593ZM196.011 251.664C193.871 249.487 191.952 248.995 189.244 248.008L188.901 248.948C191.678 249.96 193.35 250.383 195.298 252.365L196.011 251.664ZM189.244 248.008C187.878 247.51 187.233 247.403 186.616 247.282C186.041 247.17 185.473 247.043 184.206 246.502L183.813 247.422C185.149 247.992 185.784 248.138 186.424 248.264C187.023 248.381 187.608 248.476 188.901 248.948L189.244 248.008ZM184.206 246.502C183.749 246.308 182.684 246.045 181.791 245.84C181.333 245.734 180.9 245.64 180.582 245.572C180.423 245.538 180.293 245.511 180.202 245.492C180.157 245.482 180.121 245.475 180.097 245.47C180.085 245.467 180.075 245.465 180.069 245.464C180.066 245.463 180.064 245.463 180.062 245.463C180.061 245.462 180.061 245.462 180.06 245.462C180.06 245.462 180.06 245.462 180.06 245.462C180.06 245.462 180.06 245.462 180.06 245.462C180.059 245.462 180.059 245.462 179.959 245.952C179.859 246.442 179.859 246.442 179.859 246.442C179.859 246.442 179.859 246.442 179.859 246.442C179.859 246.442 179.859 246.442 179.859 246.442C179.859 246.442 179.86 246.442 179.861 246.442C179.862 246.442 179.864 246.443 179.867 246.444C179.874 246.445 179.882 246.447 179.894 246.449C179.918 246.454 179.953 246.461 179.997 246.471C180.087 246.489 180.216 246.516 180.373 246.55C180.688 246.617 181.115 246.711 181.567 246.814C182.496 247.028 183.457 247.27 183.813 247.422L184.206 246.502ZM179.959 245.452H173.883V246.452H179.959V245.452ZM173.807 245.458L167.225 246.468L167.377 247.457L173.959 246.446L173.807 245.458ZM167.18 246.477L161.105 247.993L161.347 248.963L167.422 247.447L167.18 246.477ZM161.105 247.993L157.054 249.003L157.296 249.974L161.347 248.963L161.105 247.993ZM156.855 249.104L153.818 251.63L154.457 252.399L157.495 249.873L156.855 249.104ZM153.709 251.757L152.19 254.283L153.047 254.798L154.566 252.272L153.709 251.757ZM152.588 255.04L169.296 256.05L169.357 255.052L152.649 254.041L152.588 255.04ZM169.036 255.144L165.492 257.67L166.073 258.484L169.617 255.958L169.036 255.144ZM165.483 257.677L163.458 259.192L164.057 259.993L166.082 258.477L165.483 257.677ZM163.599 259.118L160.562 260.129L160.877 261.078L163.915 260.067L163.599 259.118ZM160.407 260.212L157.876 262.233L158.5 263.015L161.031 260.994L160.407 260.212ZM157.759 262.366L156.24 264.892L157.097 265.408L158.616 262.882L157.759 262.366ZM156.205 264.964L155.192 267.49L156.12 267.862L157.133 265.336L156.205 264.964ZM155.171 267.555L154.159 271.596L155.129 271.839L156.141 267.798L155.171 267.555ZM154.144 271.718V274.749H155.144V271.718H154.144ZM154.228 275.027L155.241 276.542L156.072 275.987L155.059 274.471L154.228 275.027ZM155.303 276.619L156.822 278.134L157.528 277.426L156.009 275.911L155.303 276.619ZM156.898 278.197L159.936 280.217L160.49 279.385L157.452 277.364L156.898 278.197ZM160.028 280.266L162.559 281.276L162.93 280.347L160.398 279.337L160.028 280.266Z" fill="black"/>
<path d="M194.642 275.759C193.15 275.556 191.098 274.244 191.098 274.244C191.098 274.244 194.814 272.147 196.667 270.202C197.539 269.286 198.069 268.776 198.692 267.676C199.217 266.751 199.705 265.15 199.705 265.15V261.108C199.705 261.108 199.339 258.262 198.692 256.561C197.778 254.156 197.149 252.626 195.148 251.004C193.776 249.891 192.742 249.633 191.098 248.983C189.002 248.155 187.665 248.186 185.528 247.468C183.51 246.789 180.465 245.447 180.465 245.447C180.465 245.447 182.578 243.838 184.009 242.921C186.094 241.584 186.179 241.498 188.06 239.889C189.444 238.706 190.873 236.883 192.617 236.353C193.563 236.066 195.148 236.353 195.148 236.353C195.148 236.353 197.952 236.047 199.705 236.353C201.803 236.719 202.802 236.546 204.768 237.363C206.158 237.941 209.831 239.889 209.831 239.889C209.831 239.889 211.721 241.164 212.869 242.921C213.792 244.333 214.37 245.865 214.894 247.468C215.341 248.833 215.907 251.004 215.907 251.004C215.907 251.004 216.126 255.016 215.907 257.572C215.702 259.963 215.159 261.601 213.882 263.634C213.139 264.816 212.845 265.679 211.856 266.666C210.67 267.849 209.589 268.106 208.312 269.192C205.679 271.43 204.898 272.857 201.73 274.244C199.44 275.247 197.12 276.097 194.642 275.759Z" fill="white" stroke="black" stroke-linecap="round"/>
<path d="M4.77649 279.296L3.25757 300.515V316.682" stroke="black" stroke-linecap="round"/>
<path d="M144.017 260.603C144.017 261.163 143.562 261.619 142.999 261.619C142.435 261.619 141.98 261.163 141.98 260.603C141.98 260.043 142.435 259.587 142.999 259.587C143.562 259.587 144.017 260.043 144.017 260.603Z" stroke="black"/>
<path d="M154.144 260.603C154.144 261.163 153.688 261.619 153.125 261.619C152.561 261.619 152.106 261.163 152.106 260.603C152.106 260.043 152.561 259.587 153.125 259.587C153.688 259.587 154.144 260.043 154.144 260.603Z" stroke="black"/>
</svg>
